# xmcd
#
# Track frame offsets: 
#        150
#        16097
#        31662
#        45480
#        60750
#        74450
#        90397
#        105827
#        120607
#        134395
#        152590
#        167425
#        182542
#        197347
#
# Disc length: 2817 seconds
#
# Revision: 0
# Processed by: cddbd v1.5PL3 Copyright (c) Steve Scherf et al.
# Submitted via: ExactAudioCopy v0.90b4
#
DISCID=940aff0e
DTITLE=The Drifters - Kissing In The Back Row
DYEAR=1973
DGENRE=Blues
TTITLE0=Kissin' In The Back Row Of The Movies
TTITLE1=Can I Take You Home Little Girl
TTITLE2=The Songs We Used To Sing
TTITLE3=Every Night's A Saturday Night With You
TTITLE4=There Goes My First Love
TTITLE5=Summer In The City
TTITLE6=Like Sister And Brother
TTITLE7=You're More Than A Number In My Little Red Book
TTITLE8=Down On The Beach Tonight
TTITLE9=You've Got Your Troubles
TTITLE10=Every Night
TTITLE11=It Looks Like I'm Clown Again
TTITLE12=Honey You're Heaven To Me
TTITLE13=Love Games
EXTD=
EXTT0=
EXTT1=
EXTT2=
EXTT3=
EXTT4=
EXTT5=
EXTT6=
EXTT7=
EXTT8=
EXTT9=
EXTT10=
EXTT11=
EXTT12=
EXTT13=
PLAYORDER=
